<mxfile host="app.diagrams.net" modified="2023-01-30T22:47:26.504Z" agent="5.0 (Windows NT 10.0; Win64; x64) AppleWebKit/537.36 (KHTML, like Gecko) Chrome/109.0.0.0 Safari/537.36" etag="WK7vQsOA2BnfRFF4e50v" version="20.8.13" type="github">
  <diagram name="Flow Release" id="ItN0t0KxEeUhWNbRamSt">
    <mxGraphModel dx="2084" dy="640" grid="1" gridSize="10" guides="1" tooltips="1" connect="1" arrows="1" fold="1" page="1" pageScale="1" pageWidth="827" pageHeight="1169" math="0" shadow="0">
      <root>
        <mxCell id="0" />
        <mxCell id="1" parent="0" />
        <mxCell id="9GsA2Etg25D142pm8I0d-7" value="" style="endArrow=none;html=1;rounded=0;strokeColor=#F7FF12;strokeWidth=3;fontSize=20;" edge="1" parent="1">
          <mxGeometry width="50" height="50" relative="1" as="geometry">
            <mxPoint x="414" y="408" as="sourcePoint" />
            <mxPoint x="300" y="480" as="targetPoint" />
          </mxGeometry>
        </mxCell>
        <mxCell id="9GsA2Etg25D142pm8I0d-4" value="" style="endArrow=none;html=1;rounded=0;strokeColor=#22FF00;strokeWidth=3;fontSize=20;" edge="1" parent="1">
          <mxGeometry width="50" height="50" relative="1" as="geometry">
            <mxPoint x="414" y="760" as="sourcePoint" />
            <mxPoint x="300" y="680" as="targetPoint" />
          </mxGeometry>
        </mxCell>
        <mxCell id="9GsA2Etg25D142pm8I0d-1" value="" style="endArrow=none;html=1;rounded=0;strokeWidth=3;fillColor=#f8cecc;strokeColor=#000000;" edge="1" parent="1">
          <mxGeometry width="50" height="50" relative="1" as="geometry">
            <mxPoint x="414" y="845" as="sourcePoint" />
            <mxPoint x="414" y="325" as="targetPoint" />
          </mxGeometry>
        </mxCell>
        <mxCell id="9GsA2Etg25D142pm8I0d-2" value="" style="ellipse;whiteSpace=wrap;html=1;aspect=fixed;strokeWidth=3;fillColor=none;strokeColor=#000000;" vertex="1" parent="1">
          <mxGeometry x="395" y="844" width="36" height="36" as="geometry" />
        </mxCell>
        <mxCell id="9GsA2Etg25D142pm8I0d-3" value="&lt;font style=&quot;font-size: 20px;&quot;&gt;Main&lt;/font&gt;" style="text;html=1;strokeColor=#000000;fillColor=#B3B3B3;align=center;verticalAlign=middle;whiteSpace=wrap;rounded=0;fontColor=#333333;" vertex="1" parent="1">
          <mxGeometry x="10" y="30" width="220" height="40" as="geometry" />
        </mxCell>
        <mxCell id="9GsA2Etg25D142pm8I0d-5" value="&lt;span style=&quot;font-size: 20px;&quot;&gt;Release&lt;/span&gt;" style="text;html=1;strokeColor=#82b366;fillColor=#d5e8d4;align=center;verticalAlign=middle;whiteSpace=wrap;rounded=0;" vertex="1" parent="1">
          <mxGeometry x="10" y="90" width="220" height="40" as="geometry" />
        </mxCell>
        <mxCell id="9GsA2Etg25D142pm8I0d-6" value="" style="endArrow=none;html=1;rounded=0;strokeColor=#22FF00;strokeWidth=3;fontSize=20;endSize=6;startSize=6;" edge="1" parent="1">
          <mxGeometry width="50" height="50" relative="1" as="geometry">
            <mxPoint x="300" y="680" as="sourcePoint" />
            <mxPoint x="300" y="480" as="targetPoint" />
          </mxGeometry>
        </mxCell>
        <mxCell id="9GsA2Etg25D142pm8I0d-8" value="Create release branch" style="text;html=1;strokeColor=none;fillColor=none;align=center;verticalAlign=middle;whiteSpace=wrap;rounded=0;fontSize=17;" vertex="1" parent="1">
          <mxGeometry x="30" y="770" width="230" height="30" as="geometry" />
        </mxCell>
        <mxCell id="9GsA2Etg25D142pm8I0d-9" value="" style="curved=1;endArrow=classic;html=1;rounded=0;strokeColor=#000000;strokeWidth=3;fontSize=17;startSize=6;endSize=6;entryX=1;entryY=0.5;entryDx=0;entryDy=0;" edge="1" parent="1" target="9GsA2Etg25D142pm8I0d-8">
          <mxGeometry width="50" height="50" relative="1" as="geometry">
            <mxPoint x="370" y="730" as="sourcePoint" />
            <mxPoint x="260" y="785" as="targetPoint" />
            <Array as="points">
              <mxPoint x="330" y="790" />
              <mxPoint x="290" y="785" />
            </Array>
          </mxGeometry>
        </mxCell>
        <mxCell id="9GsA2Etg25D142pm8I0d-10" value="" style="curved=1;endArrow=classic;html=1;rounded=0;strokeColor=#000000;strokeWidth=3;fontSize=17;startSize=6;endSize=6;" edge="1" parent="1">
          <mxGeometry width="50" height="50" relative="1" as="geometry">
            <mxPoint x="300" y="585" as="sourcePoint" />
            <mxPoint x="170" y="600" as="targetPoint" />
            <Array as="points">
              <mxPoint x="240" y="600" />
            </Array>
          </mxGeometry>
        </mxCell>
        <mxCell id="9GsA2Etg25D142pm8I0d-11" value="Create release branch" style="text;html=1;strokeColor=none;fillColor=none;align=center;verticalAlign=middle;whiteSpace=wrap;rounded=0;fontSize=17;" vertex="1" parent="1">
          <mxGeometry x="-40" y="585" width="230" height="30" as="geometry" />
        </mxCell>
        <mxCell id="9GsA2Etg25D142pm8I0d-13" value="" style="ellipse;whiteSpace=wrap;html=1;aspect=fixed;strokeWidth=3;fillColor=#FF0000;strokeColor=#ff0800;" vertex="1" parent="1">
          <mxGeometry x="290" y="470" width="20" height="20" as="geometry" />
        </mxCell>
        <mxCell id="9GsA2Etg25D142pm8I0d-16" value="" style="ellipse;whiteSpace=wrap;html=1;aspect=fixed;strokeWidth=3;fillColor=#FF0000;strokeColor=#ff0800;" vertex="1" parent="1">
          <mxGeometry x="250" y="150" width="40" height="40" as="geometry" />
        </mxCell>
        <mxCell id="9GsA2Etg25D142pm8I0d-18" value="&lt;span style=&quot;font-size: 20px;&quot;&gt;Code Review&lt;/span&gt;" style="text;html=1;strokeColor=#b85450;fillColor=#f8cecc;align=center;verticalAlign=middle;whiteSpace=wrap;rounded=0;" vertex="1" parent="1">
          <mxGeometry x="10" y="150" width="220" height="40" as="geometry" />
        </mxCell>
        <mxCell id="9GsA2Etg25D142pm8I0d-19" value="&lt;span style=&quot;font-size: 20px;&quot;&gt;Merge&lt;/span&gt;" style="text;html=1;strokeColor=#D6B71E;fillColor=#fff2cc;align=center;verticalAlign=middle;whiteSpace=wrap;rounded=0;" vertex="1" parent="1">
          <mxGeometry x="10" y="210" width="220" height="40" as="geometry" />
        </mxCell>
      </root>
    </mxGraphModel>
  </diagram>
</mxfile>
